# xmcd
#
# Track frame offsets:
#	150
#	19414
#	41318
#	61209
#	75158
#	97278
#	122275
#	143364
#	169267
#	182965
#	199923
#	220260
#	241217
#	266193
#	281271
#	299351
#	314951
#	332752
#
# Disc length: 4724 seconds
#
# Revision: 0
# Processed by: cddbd v1.5.2PL0 Copyright (c) Steve Scherf et al.
# Submitted via: dBpowerAMP V4.0
#
DISCID=0d127212
DTITLE=The Times - E For Edward reissue
DYEAR=1989
DGENRE=Pop
TTITLE0=Manchester
TTITLE1=Valvaline
TTITLE2=Snow
TTITLE3=Catherine Wheel
TTITLE4=Crashed On You
TTITLE5=Count To Five
TTITLE6=All Your Life
TTITLE7=French Film Bleurred
TTITLE8=No Love On Haight St.
TTITLE9=Acid Angel Of Ecstasy
TTITLE10=Sold
TTITLE11=Life
TTITLE12=Manchester (12" version)
TTITLE13=Lundi Bleu (German vocal version)
TTITLE14=True Faith
TTITLE15=London Fields
TTITLE16=DaDa Wouldn't Buy Me A Bauhaus
TTITLE17=Love And Truth
EXTD=
EXTT0=
EXTT1=
EXTT2=
EXTT3=
EXTT4=
EXTT5=
EXTT6=
EXTT7=
EXTT8=
EXTT9=
EXTT10=
EXTT11=
EXTT12=
EXTT13=
EXTT14=
EXTT15=
EXTT16=
EXTT17=
PLAYORDER=
